<svg xmlns="http://www.w3.org/2000/svg" xmlns:xlink="http://www.w3.org/1999/xlink" width="82.002" height="98" viewBox="0 0 82.002 98"><defs><style>.a{fill:#36bb9b;}.b,.d{fill:#fff;}.c,.d{stroke:none;}.e{filter:url(#a);}</style><filter id="a" x="0" y="0" width="82.002" height="98" filterUnits="userSpaceOnUse"><feOffset dy="3" input="SourceAlpha"/><feGaussianBlur stdDeviation="3" result="b"/><feFlood flood-opacity="0.161"/><feComposite operator="in" in2="b"/><feComposite in="SourceGraphic"/></filter></defs><g transform="translate(-659.999 -471.001)"><g class="e" transform="matrix(1, 0, 0, 1, 660, 471)"><g class="a" transform="translate(9 6)"><path class="c" d="M 32.00277709960938 77.08445739746094 L 22.58894348144531 61.39616775512695 L 22.31183242797852 60.93435668945313 L 21.80424308776855 60.75428771972656 C 18.87734413146973 59.71594619750977 16.13106536865234 58.23637771606445 13.64171028137207 56.356689453125 C 11.17813205718994 54.49646759033203 9.015853881835938 52.28254318237305 7.214931964874268 49.77643203735352 C 3.476187705993652 44.57371139526367 1.499998807907104 38.42616653442383 1.499998807907104 31.99841117858887 C 1.499998807907104 27.88050079345703 2.306232213973999 23.88658905029297 3.896287679672241 20.12761116027832 C 5.432454109191895 16.49604415893555 7.631932258605957 13.23426628112793 10.43364334106445 10.43288898468018 C 13.2354097366333 7.631444454193115 16.49765396118164 5.432177543640137 20.1297550201416 3.896144390106201 C 23.8894214630127 2.306177854537964 27.88413238525391 1.5 32.00293350219727 1.5 C 36.12077713012695 1.5 40.11470031738281 2.306166648864746 43.87377548217773 3.896122217178345 C 47.50538635253906 5.432155609130859 50.76725387573242 7.63142204284668 53.56875610351563 10.4328441619873 C 56.37027740478516 13.23427772521973 58.56963348388672 16.49605560302734 60.10572052001953 20.12758827209473 C 61.69574356079102 23.88663291931152 62.501953125 27.88055610656738 62.501953125 31.99841117858887 C 62.501953125 38.42684555053711 60.52592086791992 44.57475662231445 56.7874755859375 49.77751159667969 C 54.98666381835938 52.28367614746094 52.82450866699219 54.49756622314453 50.36106491088867 56.357666015625 C 47.87182235717773 58.23725509643555 45.12563323974609 59.71664428710938 42.19877624511719 60.75474548339844 L 41.69104385375977 60.93483352661133 L 41.41390991210938 61.39680099487305 L 32.00277709960938 77.08445739746094 Z"/><path class="d" d="M 32.00260543823242 74.16891479492188 L 40.12760162353516 60.62514495849609 L 40.681884765625 59.70119857788086 L 41.69736480712891 59.34102630615234 C 44.47959136962891 58.35422515869141 47.09037780761719 56.94771957397461 49.45717620849609 55.16059875488281 C 51.80017471313477 53.39144134521484 53.85660171508789 51.28581237792969 55.5693359375 48.90221405029297 C 59.12339019775391 43.95608139038086 61.00194931030273 38.11083984375 61.00194931030273 31.9984130859375 C 61.00194931030273 28.08239936828613 60.23561477661133 24.28507995605469 58.72421646118164 20.71194648742676 C 57.26374816894531 17.25919914245605 55.17234802246094 14.15767955780029 52.50811004638672 11.49351978302002 C 49.84386825561523 8.829360008239746 46.74227142333984 6.738039970397949 43.28944396972656 5.277626514434814 C 39.71625518798828 3.766306638717651 35.91892242431641 3 32.00292205810547 3 C 28.0859375 3 24.28780364990234 3.766319990158081 20.71400260925293 5.277679920196533 C 17.26070976257324 6.738093376159668 14.15872287750244 8.829426765441895 11.49424362182617 11.4935998916626 C 8.829830169677734 14.15771961212158 6.738309860229492 17.25922584533691 5.277776718139648 20.71198654174805 C 3.766363143920898 24.28505325317383 3.000003337860107 28.08235931396484 3.000003337860107 31.9984130859375 C 3.000003337860107 38.11014556884766 4.87870979309082 43.95500183105469 8.433030128479004 48.90109252929688 C 10.14589691162109 51.28466796875 12.20246982574463 53.39034652709961 14.54561614990234 55.15962600708008 C 16.91254997253418 56.94686508178711 19.5234432220459 58.35356140136719 22.30576324462891 59.34062576293945 L 23.3209228515625 59.70075988769531 L 23.87515068054199 60.62438583374023 L 32.00260543823242 74.16891479492188 M 32.00292205810547 80 L 21.30273628234863 62.16797256469727 C 8.890629768371582 57.76465225219727 3.229166622986668e-06 45.91797256469727 3.229166622986668e-06 31.9984130859375 C 3.229166622986668e-06 14.32629299163818 14.32715034484863 0 32.00292205810547 0 C 49.6748046875 0 64.001953125 14.32629299163818 64.001953125 31.9984130859375 C 64.001953125 45.9190673828125 55.11230850219727 57.76612091064453 42.70019149780273 62.16845321655273 L 32.00292205810547 80 Z"/></g></g><g transform="translate(607.7 383.1)"><path class="b" d="M80.038,132.754,78.3,139.233l30.807-8.262v-8.809L78.3,113.9l1.738,6.479,8.158,2.189-2.308,8.617Zm13.987-8.624,9.105,2.441L92.62,129.389Z" transform="translate(0)"/></g></g></svg>